<svg width="170" height="170" viewBox="0 0 170 170" fill="none" xmlns="http://www.w3.org/2000/svg">
<path d="M0 84.9278C0 38.0236 38.0558 0.000228882 85 0.000228882C131.944 0.000228882 170 38.0236 170 84.9278C170 131.832 131.944 169.855 85 169.855C38.0558 169.855 0 131.832 0 84.9278ZM153 84.9278C153 47.4045 122.555 16.9857 85 16.9857C47.4446 16.9857 17 47.4045 17 84.9278C17 122.451 47.4446 152.87 85 152.87C122.555 152.87 153 122.451 153 84.9278Z" fill="#E3E3E3"/>
<path d="M85 8.493C85 3.80257 88.8118 -0.0437164 93.4789 0.423721C108.412 1.91945 122.738 7.34662 134.962 16.22C149.484 26.7619 160.293 41.6266 165.84 58.6838C171.387 75.7409 171.387 94.1148 165.84 111.172C161.171 125.53 152.773 138.334 141.571 148.315C138.07 151.434 132.727 150.563 129.97 146.771C127.209 142.974 128.095 137.693 131.52 134.483C139.851 126.676 146.114 116.863 149.672 105.923C154.109 92.2774 154.109 77.5783 149.672 63.9326C145.234 50.2869 136.587 38.3951 124.969 29.9615C115.652 23.1978 104.808 18.937 93.471 17.5149C88.8171 16.9311 85 13.1834 85 8.493Z" fill="#B2B2B2"/>
</svg>
