<svg width="170" height="170" viewBox="0 0 170 170" fill="none" xmlns="http://www.w3.org/2000/svg">
<path d="M0 84.9278C0 38.0236 38.0558 0.000228882 85 0.000228882C131.944 0.000228882 170 38.0236 170 84.9278C170 131.832 131.944 169.855 85 169.855C38.0558 169.855 0 131.832 0 84.9278ZM153 84.9278C153 47.4045 122.555 16.9857 85 16.9857C47.4446 16.9857 17 47.4045 17 84.9278C17 122.451 47.4446 152.87 85 152.87C122.555 152.87 153 122.451 153 84.9278Z" fill="#E3E3E3"/>
<path d="M85 8.493C85 3.80257 88.8118 -0.0437164 93.4789 0.423721C108.412 1.91945 122.738 7.34662 134.962 16.22C147.181 25.0899 156.771 37.0203 162.81 50.742C164.701 55.0399 162.218 59.8596 157.752 61.3095C153.289 62.7584 148.543 60.2853 146.547 56.0389C141.69 45.7088 134.284 36.7236 124.969 29.9615C115.652 23.1978 104.808 18.937 93.471 17.5149C88.8171 16.9311 85 13.1834 85 8.493Z" fill="#B2B2B2"/>
</svg>
