<svg width="170" height="170" viewBox="0 0 170 170" fill="none" xmlns="http://www.w3.org/2000/svg">
<path d="M0 84.9278C0 38.0236 38.0558 0.000228882 85 0.000228882C131.944 0.000228882 170 38.0236 170 84.9278C170 131.832 131.944 169.855 85 169.855C38.0558 169.855 0 131.832 0 84.9278ZM153 84.9278C153 47.4045 122.555 16.9857 85 16.9857C47.4446 16.9857 17 47.4045 17 84.9278C17 122.451 47.4446 152.87 85 152.87C122.555 152.87 153 122.451 153 84.9278Z" fill="#E3E3E3"/>
<path d="M85 8.493C85 3.80257 88.8117 -0.0437012 93.4788 0.423767C105.51 1.62889 117.18 5.38902 127.693 11.4898C140.66 19.0154 151.404 29.8347 158.834 42.8497C166.264 55.8647 170.115 70.612 169.997 85.5949C169.88 100.578 165.797 115.263 158.163 128.16C150.529 141.056 139.617 151.706 126.533 159.027C113.449 166.348 98.6591 170.08 83.6649 169.845C68.6706 169.61 54.0056 165.415 41.1582 157.687C30.748 151.425 21.8316 143.023 14.9797 133.076C12.3159 129.208 13.8521 124.008 17.9679 121.748C22.0796 119.489 27.2026 121.029 29.9589 124.825C35.3008 132.182 42.0838 138.417 49.9266 143.135C60.2045 149.318 71.9365 152.673 83.9319 152.862C95.9273 153.05 107.759 150.064 118.226 144.207C128.693 138.35 137.424 129.831 143.53 119.513C149.637 109.196 152.904 97.4477 152.998 85.4615C153.092 73.4752 150.011 61.6773 144.067 51.2654C138.123 40.8534 129.528 32.1979 119.154 26.1774C111.237 21.5826 102.499 18.6474 93.4709 17.515C88.817 16.9311 85 13.1834 85 8.493Z" fill="#B2B2B2"/>
</svg>
